# xmcd
#
# Track frame offsets:
#	150
#	15189
#	34025
#	60570
#	76644
#	97937
#	115868
#	133174
#	150662
#	168330
#	190238
#
# Disc length: 2761 seconds
#
# Revision: 1
# Processed by: cddbd v1.4PL0 Copyright (c) Steve Scherf et al.
# Submitted via: audiograbber 1.81.01
#
DISCID=760ac70b
DTITLE=Kenny Chesney - No Shoes, No Shirt, No Problems
DYEAR=2002
DGENRE=Country
TTITLE0=Young
TTITLE1=I Remember
TTITLE2=A Lot Of Things Different
TTITLE3=The Good Stuff
TTITLE4=Big Star
TTITLE5=On The Coast Of Somewhere Beautiful
TTITLE6=Never Gonna Feel Like That
TTITLE7=Dreams
TTITLE8=No Shoes, No Shirt (No Problems)
TTITLE9=Live Those Songs
TTITLE10=One Step Up
EXTD=
EXTT0=
EXTT1=
EXTT2=
EXTT3=
EXTT4=
EXTT5=
EXTT6=
EXTT7=
EXTT8=
EXTT9=
EXTT10=
PLAYORDER=
